# xmcd
#
# Track frame offsets: 
#        150
#        18213
#        35870
#        52243
#        64513
#        76325
#        95955
#        109068
#        130010
#        150243
#        170513
#        188650
#        206183
#        225938
#        249923
#        277420
#        300685
#        315728
#
# Disc length: 4583 seconds
#
# Revision: 1
# Processed by: cddbd v1.5.2PL0 Copyright (c) Steve Scherf et al.
# Submitted via: ExactAudioCopy v0.99pb4
#
DISCID=f511e512
DTITLE=Tindersticks - Live At Glasgow City Halls 5th October 2008
DYEAR=2008
DGENRE=Jazz
TTITLE0=Introduction
TTITLE1=Yesterdays Tomorrows
TTITLE2=The Flicker Of A Little Girl
TTITLE3=Come Feel The Sun
TTITLE4=E-Type
TTITLE5=The Other Side Of The World
TTITLE6=The Organist Entertains
TTITLE7=Dying Slowly
TTITLE8=Say Goodbye To The City
TTITLE9=Sleepy Song
TTITLE10=She's Gone
TTITLE11=The Hungry Saw
TTITLE12=Boobar Come Back To Me
TTITLE13=All The Love
TTITLE14=The Turns We Took
TTITLE15=If You're Looking For A Way Out
TTITLE16=Her
TTITLE17=The Not Knowing
EXTD=YEAR: 2008
EXTT0=
EXTT1=
EXTT2=
EXTT3=
EXTT4=
EXTT5=
EXTT6=
EXTT7=
EXTT8=
EXTT9=
EXTT10=
EXTT11=
EXTT12=
EXTT13=
EXTT14=
EXTT15=
EXTT16=
EXTT17=
PLAYORDER=
